<?xml version="1.0" encoding="utf-8"?>
<!-- Generator: Adobe Illustrator 20.1.0, SVG Export Plug-In . SVG Version: 6.00 Build 0)  -->
<svg version="1.1" id="Layer_1" xmlns="http://www.w3.org/2000/svg" xmlns:xlink="http://www.w3.org/1999/xlink" x="0px" y="0px"
	 viewBox="0 0 4000 4000" style="enable-background:new 0 0 4000 4000;" xml:space="preserve">
<style type="text/css">
	.st0{fill-rule:evenodd;clip-rule:evenodd;fill:none;}
</style>
<path class="st0" d="M2403,277c1.7,0.7,3.3,1.3,5,2c8.7,38.5,1.3,88.9-5,124c-14.5,81.1-20.8,161-43,233
	c-21.7,70.5-50.6,131.7-78,196c-38.4,90.2-71.8,183.3-120,265c-18,29.7-36,59.3-54,89c-21.7,43.3-43.3,86.7-65,130
	c-12.7,19.7-25.3,39.3-38,59c-25.2,40.3-51,82.4-70,128c-9.8,23.5-13.5,52.3-30,69c-59.7,60.4-194.9,82-295,103
	c-14.1,3-99.1,16.3-109,9c-6-4.4,6.2-20.2,9-24c15.7-18.7,31.3-37.3,47-56c64.8-82.6,140.2-158.1,214-232
	c137.6-137.7,244.9-302.6,348-475c30.4-50.9,57.5-105,88-157c19-34.7,38-69.3,57-104c33.4-75.8,59.7-158.7,91-239
	C2370.3,357.7,2379.4,308.8,2403,277z"/>
<path class="st0" d="M2943,536c2.7,0.3,5.3,0.7,8,1c0.3,1,0.7,2,1,3c5.1,13-8.2,31.8-13,40c-18,30.9-33,62.3-51,92
	c-73.7,121.6-148.9,240.9-224,360c-64.9,103-121.4,212.7-178,324c-21,41.3-42,82.7-63,124c-30,71-60,142-90,213
	c-31.7,61.7-63.3,123.3-95,185c-75,169.7-151.9,336.4-222,513c-16.7,42.7-33.3,85.3-50,128c-40.1,123.8-65.7,247.3-95,383
	c-3,30.3-6,60.7-9,91c-0.7,22.3-1.3,44.7-2,67c-8.5,53.7-7.6,107.2-20,152c-5.5,19.9-7.5,38.3-21,50c-1-0.3-2-0.7-3-1
	c-16.5-6.7-20.5-34-26-52c-13.8-45.1-23.5-91.8-35-141c-25.9-110.9-40-241.3-40-373c0-52-7.1-107.7,1-158c4-60,8-120,12-180
	c4.3-24.3,8.7-48.7,13-73c-5.5-18.2-49.4-23.1-67-30c-64.2-25-129.8-48.5-190-79c-75-38-152.2-74.5-221-120
	c-53.7-35.5-102.3-75.9-151-116c-7.7-9-15.3-18-23-27c-11-11.7-22-23.3-33-35c-26-33.6-48.3-68.9-73-104
	c-32.6-46.4-59.5-96.1-80-155c-6.2-17.8-19.9-42.3-16-64c12.3-14.3,58.6,26.1,68,33c73.1,53.7,135.1,85.2,234,115
	c62,16.7,124,33.3,186,50c22.7-0.7,45.3-1.3,68-2c32.6-5.4,65.4-1.9,95-7c45.2-7.9,85.5-7.8,127-17c91.4-20.4,182.7-48.4,259-87
	c70-35.4,118.5-89.2,165-148c56.1-71,113.7-141.3,167-216c51.4-72,105.7-143.1,157-216c30-45.3,60-90.7,90-136
	c36.6-50.1,86.4-91.5,130-135C2727,694.2,2822.4,603.3,2943,536z"/>
<path class="st0" d="M3398,609c-1,25.4-21.7,52.8-31,74c-26,59.4-52.8,114.7-88,164c-51.3,71.8-115.5,130.5-177,192
	c-110.8,110.8-227,217.6-350,316c-58.7,47-108,105.7-167,153c-25,20.1-43.1,47.8-77,59c-2.1-1.8-2.4-1.4-4-4
	c-4.5-11.9,18.5-63.1,23-76c27.2-77.5,52.2-147.2,90-211c38.9-65.5,81-126.1,127-184c8.7-8,17.3-16,26-24c46.2-46.2,99-84.5,153-123
	c81.5-58.2,158.7-121.1,237-182c52.8-41.1,103.9-81,163-117C3344.1,633.1,3367.1,609.9,3398,609z"/>
<path class="st0" d="M2380,1324c-45.4,29.1-80.8,73.7-114,115c-21.7,23.7-43.3,47.3-65,71c-70.3,90.1-120.8,155.1-223,215
	c-34.2,20.1-72.6,29.7-112,45c-91.8,35.6-189.2,51.7-301,71c-21.7,2.7-43.3,5.3-65,8c-19.3,0.3-38.7,0.7-58,1c-20,0.7-40,1.3-60,2
	c-51.9-8.3-103.3-2.3-151-12c-22.1-4.5-62.5-21.4-83-18c-0.3,2-0.7,4-1,6c16.8,32.6,74.7,80.7,104,104c38.8,30.9,76.8,64,118,93
	c66.7,47,144.7,84.4,225,117c51.7,17.7,103.3,35.3,155,53c27.3,9.6,62.4,19,76,42c6.5,11-1,26.2-4,38c-7.7,30-6.7,68.2-12,102
	c-2,61.3-4,122.7-6,184c-0.7,23-1.3,46-2,69c-7.4,49.1-3.5,113.2,4,159c5.3,32.7,3.8,110.1,21,128c0.7,0,1.3,0,2,0
	c15.9-35.6,16.1-84.8,26-124c30.7-121.8,45.8-256.3,82-371c37.6-119.3,82.4-230.2,127-342c20.7-53,41.3-106,62-159
	c22.1-51.2,55.4-96.9,83-144c14-31.3,28-62.7,42-94c38-89.3,76-178.7,114-268c4.6-11.4,34.7-81.1,22-90
	C2384,1324.7,2382,1324.3,2380,1324z"/>
<path class="st0" d="M3196,1328c1.3,0,2.7,0,4,0c0,2.3,0,4.7,0,7c-49.3,146.5-143.8,258.5-253,346c-58.9,47.2-113.6,102.2-175,147
	c-29,18.3-58,36.7-87,55c-55.3,37-110.7,74-166,111c-59.4,39.7-122.2,82.2-172,132c-8.9,8.9-43.3,50.5-58,45c-17.7-9.3-8.4-72-4-91
	c20.5-87.9,54.7-149.5,102-209c19.5-24.5,45.5-46.4,70-66c31.3-25,59.4-53.7,94-76c44.5-28.7,94.6-46.6,141-74
	c119.2-70.4,236.4-143,350-219C3088.5,1404.9,3159.9,1367.6,3196,1328z"/>
<path class="st0" d="M3016,1898c1.3,0.7,2.7,1.3,4,2c-2.5,28.1-21.1,50.7-31,73c-25.6,57.9-58.4,109.4-95,156
	c-35.9,45.7-79.8,85.8-125,122c-60.7,48.7-116.7,105.8-180,152c-84.6,61.7-176.8,113.1-262,173c-52.7,37.1-110.8,73.9-156,119
	c-13,13-46.7,55.3-67,56c-2-1.3-4-2.7-6-4c-9.1-33-1.5-77.8,6-109c21.5-89.3,63.6-157.6,119-213c43.9-43.9,91.9-89.8,146-123
	c44.9-27.6,94-46.8,140-74c104.6-61.7,205.6-128.1,307-192C2883.9,1993.2,2956.9,1950.5,3016,1898z"/>
<path class="st0" d="M1312,2194c50.2,0.3,95.9,25.6,132,44c67.1,34.2,132.5,63.6,160,137c14.4,38.5,2.6,88.9-5,126
	c-5.3,33.7-10.7,67.3-16,101c-25,138.7-24.5,330.5,7,459c28,114.2,56.6,218.9,96,321c10.2,26.4,43.7,106.8,37,136c-1,0.3-2,0.7-3,1
	c-15.6,4.9-54.6-33.7-64-43c-54.7-54.5-102.1-109-146-175c-36-54-63.5-115.6-91-178c-109.9-249.6-196.2-571.1-124-921
	C1300.5,2198.1,1304.6,2197.2,1312,2194z"/>
<path class="st0" d="M2864,2470c1.3,0.7,2.7,1.3,4,2c-0.3,24.4-16.9,43.7-25,62c-27.5,62-60.7,118.1-100,168
	c-35.9,45.5-78.9,85.8-124,122c-62.4,50.1-119.3,110.2-185,157c-83.2,59.3-171.9,110.5-255,169c-59.8,42.1-122.9,83.9-174,135
	c-8.8,8.8-45.3,50.9-58,47c-16.8-8.1-9.8-73.3-5-94c20.7-89.8,55.9-153.2,104-214c20.5-25.9,48.1-49.3,74-70
	c31.8-25.5,59.9-55.3,96-77c45.4-27.3,94.8-47.4,141-75c106.5-63.6,209.4-131.7,313-197C2735.6,2563.6,2808,2521.9,2864,2470z"/>
</svg>
